# xmcd CD database file
# Copyright (C) 1997 Ti Kan
# 
# Track frame offsets:
#     150
#     28295
#     51050
#     67435
#     96940
#     118105
#     133490
#     152645
#     162740
#     187495
#     208445
#     229860
#     239575
#     255115
#     276465
#     293380
# 
# Disc length: 3980 seconds
# 
# Revision: 1
# Processed by: cddbd v1.4b41PL1 Copyright (c) Steve Scherf et al.
# Submitted via: DiscPlay 4.0.4
# 
DISCID=0b0f8a10
DTITLE=Big Gilson and Allan Ghreen - Yellow Mojo Blues
DYEAR=1900
DGENRE=
TTITLE0=Drivin' Wheel
TTITLE1=Mardi Gras In New Orleans
TTITLE2=You Gotta Move
TTITLE3=Hanoi Blues
TTITLE4=I Just Wanna Make Love To You
TTITLE5=Hideaway
TTITLE6=Shake Your Money Maker
TTITLE7=Marina
TTITLE8=Highway 49
TTITLE9=Tipitina
TTITLE10=Great Balls Of Fire - Johnny B.Goode - Whole Lotta Shakin' Goin' On
TTITLE11=Rainy Blues
TTITLE12=Jook Joint's Jump
TTITLE13=Ain't Nobody's Business
TTITLE14=Yellow Mojo Blues
TTITLE15=See You Later
EXTD=
EXTT0=
EXTT1=
EXTT2=
EXTT3=
EXTT4=
EXTT5=
EXTT6=
EXTT7=
EXTT8=
EXTT9=
EXTT10=
EXTT11=
EXTT12=
EXTT13=
EXTT14=
EXTT15=
PLAYORDER=
